{"title":"FreakyLinks Complete Series","uid":10993452,"size":4763649216,"categoryP":"video","categoryS":"tv_shows","magnet":"?xt=urn:btih:5e6c6e90bae090b3d06f772ebe559768d5178955&amp;dn=FreakyLinks+Complete+Series&amp;tr=udp%3A%2F%2Ftracker.openbittorrent.com%3A80&amp;tr=udp%3A%2F%2Fopen.demonii.com%3A1337&amp;tr=udp%3A%2F%2Ftracker.coppersurfer.tk%3A6969&amp;tr=udp%3A%2F%2Fexodus.desync.com%3A6969","seeders":4,"leechers":0,"uploader":"horrorhound","files":-1,"time":1410034209,"description":"screens: &lt;a href=&quot;\nhttp://image.bayimg.com/507f40f57565c4569e0e8cab789d2b11be186f0c.jpg&quot; rel=&quot;nofollow&quot; target=&quot;_NEW&quot;&gt;\nhttp://image.bayimg.com/507f40f57565c4569e0e8cab789d2b11be186f0c.jpg&lt;/a&gt;\n\nThis is a 90's found footage style x-files type series, most of the shows focus on finding proof of legends such as a desert squid, harbingers, bigfoot and such.\nThese are Chiller rips and the best quality found as of yet, enjoy!\n\nVideo\nID : 0\nFormat : MPEG-4 Visual\nFormat profile : Advanced Simple@L5\nFormat settings, BVOP : 1\nFormat settings, QPel : No\nFormat settings, GMC : No warppoints\nFormat settings, Matrix : Custom\nCodec ID : XVID\nCodec ID/Hint : XviD\nDuration : 44mn 13s\nBit rate : 977 Kbps\nWidth : 512 pixels\nHeight : 384 pixels\nDisplay aspect ratio : 4:3\nFrame rate : 29.970 fps\nColor space : YUV\nChroma subsampling : 4:2:0\nBit depth : 8 bits\nScan type : Progressive\nCompression mode : Lossy\nBits/(Pixel*Frame) : 0.166\nStream size : 309 MiB (88%)\nWriting library : XviD 1.1.2 (UTC 2006-11-01)\n\nAudio\nID : 1\nFormat : MPEG Audio\nFormat version : Version 1\nFormat profile : Layer 3\nMode : Joint stereo\nMode extension : MS Stereo\nCodec ID : 55\nCodec ID/Hint : MP3\nDuration : 44mn 13s\nBit rate mode : Variable\nBit rate : 114 Kbps\nNominal bit rate : 128 Kbps\nChannel(s) : 2 channels\nSampling rate : 48.0 KHz\nCompression mode : Lossy\nStream size : 36.0 MiB (10%)\nAlignment : Aligned on interleaves\nInterleave, duration : 24 ms (0.72 video frame)\nInterleave, preload duration : 557 ms\nWriting library : LAME3.98r\nEncoding settings : -m j -V 4 -q 2 -lowpass 17 --abr 128\n","torrent":{"xt":"urn:btih:5e6c6e90bae090b3d06f772ebe559768d5178955","amp;dn":"FreakyLinks+Complete+Series","amp;tr":["udp%3A%2F%2Ftracker.openbittorrent.com%3A80","udp%3A%2F%2Fopen.demonii.com%3A1337","udp%3A%2F%2Ftracker.coppersurfer.tk%3A6969","udp%3A%2F%2Fexodus.desync.com%3A6969"],"infoHash":"5e6c6e90bae090b3d06f772ebe559768d5178955","infoHashBuffer":{"type":"Buffer","data":[94,108,110,144,186,224,144,179,208,111,119,46,190,85,151,104,213,23,137,85]},"announce":[],"urlList":[]}}